<?xml version="1.0" encoding="utf-8"?>
<!-- Generator: Adobe Illustrator 26.5.0, SVG Export Plug-In . SVG Version: 6.00 Build 0)  -->
<svg version="1.1"
	 id="svg1392" xmlns:sodipodi="http://sodipodi.sourceforge.net/DTD/sodipodi-0.dtd" xmlns:rdf="http://www.w3.org/1999/02/22-rdf-syntax-ns#" xmlns:svg="http://www.w3.org/2000/svg" xmlns:inkscape="http://www.inkscape.org/namespaces/inkscape" xmlns:cc="http://creativecommons.org/ns#" xmlns:dc="http://purl.org/dc/elements/1.1/"
	 xmlns="http://www.w3.org/2000/svg" xmlns:xlink="http://www.w3.org/1999/xlink" x="0px" y="0px" viewBox="0 0 612 612"
	 style="enable-background:new 0 0 612 612;" xml:space="preserve">
<style type="text/css">
	.st0{stroke:#FFFFFF;stroke-width:3.408;}
</style>
<g>
	<path class="st0" d="M342.3,349c-9,9-22,14.2-35.6,14.2c-13.7,0-26.7-5.2-35.8-14.4l-21.3-21.6L138.2,441.1h335.5L363.3,327.9
		L342.3,349z"/>
	<path class="st0" d="M306.7,332.6c5.5,0,10.6-1.9,13.9-5.2L476,170.9H138.3l154.4,156.4C296,330.7,301.1,332.6,306.7,332.6z"/>
	<polygon class="st0" points="495,419 495,195.3 384.9,306.2 	"/>
	<path class="st0" d="M530.7,17.3c0,0-448.5-0.1-448.3,0c-41.3,0-64.6,21.4-64.6,65v450.1c0,40.8,20.9,62.2,62.2,62.2h452
		c41.3,0,62.2-20.3,62.2-62.2V82.4C594.2,39.8,573.3,17.3,530.7,17.3z M506.5,471.7H105.5c-10.6,0-19.1-8.6-19.1-19.1V159.4
		c0-10.6,8.6-19.1,19.1-19.1h401.1c10.6,0,19.1,8.6,19.1,19.1v293.2C525.7,463.2,517.1,471.7,506.5,471.7z"/>
	<polygon class="st0" points="117,192.9 117,419 228,305.5 	"/>
</g>
</svg>
