<?xml version="1.0" encoding="UTF-8"?>
<svg xmlns="http://www.w3.org/2000/svg" viewBox="0 0 826.29 826.29">
  <g id="BG">
    <g>
      <path d="M413.14,815.79c-54.36,0-107.09-10.64-156.72-31.64-47.95-20.28-91.01-49.31-127.99-86.29s-66.02-80.04-86.29-127.99c-20.99-49.63-31.64-102.36-31.64-156.72s10.64-107.09,31.64-156.72c20.28-47.95,49.31-91.01,86.29-127.99s80.04-66.02,127.99-86.29c49.63-20.99,102.36-31.64,156.72-31.64s107.09,10.64,156.72,31.64c47.95,20.28,91.01,49.31,127.99,86.29s66.01,80.04,86.29,127.99c20.99,49.63,31.64,102.36,31.64,156.72s-10.64,107.09-31.64,156.72c-20.28,47.95-49.31,91.01-86.29,127.99s-80.04,66.01-127.99,86.29c-49.63,20.99-102.36,31.64-156.72,31.64Z" style="fill: #16161a;"/>
      <path d="M413.14,21c52.95,0,104.3,10.37,152.63,30.81,46.69,19.75,88.63,48.03,124.65,84.05,36.02,36.02,64.3,77.96,84.05,124.65,20.44,48.33,30.81,99.69,30.81,152.63s-10.37,104.3-30.81,152.63c-19.75,46.69-48.03,88.63-84.05,124.65-36.02,36.02-77.96,64.3-124.65,84.05-48.33,20.44-99.68,30.81-152.63,30.81s-104.3-10.37-152.63-30.81c-46.69-19.75-88.63-48.03-124.65-84.05-36.02-36.02-64.3-77.96-84.05-124.65-20.44-48.33-30.81-99.69-30.81-152.63s10.37-104.3,30.81-152.63c19.75-46.69,48.03-88.63,84.05-124.65,36.02-36.02,77.96-64.3,124.65-84.05,48.33-20.44,99.69-30.81,152.63-30.81m0-21C184.97,0,0,184.97,0,413.14s184.97,413.14,413.14,413.14,413.14-184.97,413.14-413.14S641.32,0,413.14,0h0Z" style="fill: #7f5af0;"/>
    </g>
  </g>
  <g id="TMW">
    <g>
      <g id="Hat">
        <path d="M705.92,446.45c-.75,11.71-13.28,14.04-28.22,17.6-116.37,27.78-263.45,15.76-265.29,15.61-194.26-15.87-275.6,14.22-290.84-24.75-9.36-23.95,35.94-46.38,94.88-67.42,65.69-23.45,75.22,13.29,187.69,16.29,110.46,2.94,165.5-57.62,245.8-.4,8.97,6.39,57.13,25.21,55.98,43.06Z" style="fill: #7f5af0;"/>
        <path d="M532.92,415.74s-199.39,33.05-249.19-20.73c0,0,100.26-287.51,138.77-262.27,38.51,25.23,99.27,75.69,117.19,99.6l8.51,11.19s-.15,65.04-26.71,79.64c0,0-3.65-14.28-2.32-28.88,1.33-14.61-18.64-50.66-18.64-50.66l-20.38-2.28-21.11-2.36,10.29,17.93c-1.33,.66-10.29,6.97-10.29,6.97,0,0,76.25,127.65,73.9,151.87Z" style="fill: #7f5af0;"/>
        <path d="M384.8,415.44c-26.95,8.72-94.39-29.43-97.4-31.15-.07-.04-.09-.11-.08-.18l13.42-35.25c24.45,23.18,79.85-6.26,84-5.79,.16,.02,.29,.14,.32,.29l7.64,36.44c.01,.05,.01,.1,0,.15l-7.65,35.21c-.03,.13-.12,.24-.25,.28Z" style="fill: #26233d;"/>
        <path d="M424.59,416.36c26.95,8.72,96.72-28.34,99.74-30.06-2.15-6.38-17.11-35.86-17.11-35.86-24.45,23.18-78.43-6.93-82.58-6.46-.16,.02-.29,.14-.32,.29l-7.64,36.44c-.01,.05-.01,.1,0,.15l7.65,35.21c.03,.13,.12,.24,.25,.28Z" style="fill: #26233d;"/>
        <g>
          <path d="M455.29,430.54h-82.29c0-18.22,7.28-37.13,11.38-46.32,1.6-3.59,1.59-7.76-.02-11.35-4.1-9.12-11.36-28.06-11.36-47.87h82.29c0,22.23-8.2,41.01-12.4,49.17-1.43,2.78-1.5,6.13-.2,8.98,4.13,9.06,12.6,29.78,12.6,47.38Z" style="fill: #16161a;"/>
          <path d="M450.27,331.31c-2.01,17.22-8.61,31.35-12.55,38.5-3.21,5.84-3.39,12.92-.46,18.93,3.11,6.38,10.17,22,12.69,37h-73.77c2.08-14.6,7.97-28.56,11.48-35.92,3.17-6.65,3.16-14.28-.04-20.93-3.58-7.43-9.58-21.75-11.55-37.58h74.2m3.86-10h-81.94c-3.81,0-6.78,3.27-6.47,7.07,1.52,18.83,8.66,36.06,12.89,44.85,1.87,3.89,1.88,8.4,.02,12.29-4.18,8.77-11.23,25.71-12.86,43.12-.36,3.81,2.64,7.11,6.47,7.11h81.74c3.85,0,6.89-3.34,6.46-7.17-1.92-17.25-9.99-35.6-14.19-44.21-1.51-3.09-1.43-6.71,.23-9.72,4.39-7.98,12.58-25.37,14.13-46.42,.27-3.74-2.73-6.91-6.48-6.91h0Z" style="fill: #99f;"/>
        </g>
      </g>
      <rect x="440.7" y="544.27" width="127.79" height="127.79" rx="8.21" ry="8.21" transform="translate(-282.24 534.93) rotate(-45)" style="fill: #99f;"/>
      <rect x="259.88" y="544.27" width="127.79" height="127.79" rx="8.21" ry="8.21" transform="translate(-335.2 407.07) rotate(-45)" style="fill: #99f;"/>
    </g>
  </g>
</svg>