<?xml version="1.0" encoding="UTF-8"?>
<svg xmlns="http://www.w3.org/2000/svg" viewBox="0 0 1336.36 914.52">
  <defs>
    <style>
      .cls-1 {
        fill: #26233d;
      }

      .cls-2 {
        stroke: #7f5af0;
        stroke-miterlimit: 10;
        stroke-width: 21px;
      }

      .cls-2, .cls-3 {
        fill: #16161a;
      }

      .cls-4 {
        fill: #605796;
      }

      .cls-5 {
        fill: #7f5af0;
      }
    </style>
  </defs>
  <g id="BG">
    <circle class="cls-2" cx="912.71" cy="490.88" r="413.14"/>
  </g>
  <g id="TMW">
    <g>
      <g id="Hat-2" data-name="Hat">
        <path class="cls-5" d="M1205.49,524.19c-.75,11.71-13.28,14.04-28.22,17.6-116.37,27.78-263.45,15.76-265.29,15.61-194.26-15.87-275.6,14.22-290.84-24.75-9.36-23.95,35.94-46.38,94.88-67.42,65.69-23.45,75.22,13.29,187.69,16.29,110.46,2.94,165.5-57.62,245.8-.4,8.97,6.39,57.13,25.21,55.98,43.06Z"/>
        <path class="cls-5" d="M1032.49,493.48s-199.39,33.05-249.19-20.73c0,0,100.26-287.51,138.77-262.27,38.51,25.23,99.27,75.69,117.19,99.6l8.51,11.19s-.15,65.04-26.71,79.64c0,0-3.65-14.28-2.32-28.88,1.33-14.61-18.64-50.66-18.64-50.66l-20.38-2.28-21.11-2.36,10.29,17.93c-1.33,.66-10.29,6.97-10.29,6.97,0,0,76.25,127.65,73.9,151.87Z"/>
        <path class="cls-1" d="M884.49,494.49c-27.43,6.91-98.73-32.74-98.73-32.74l17.83-44.21c25.47,18.18,80.89,22.54,80.89,22.54l7.71,27.68-7.71,26.72Z"/>
        <path class="cls-1" d="M936.5,494.78c27.43,6.91,88.38-30.64,88.38-30.64l-19.42-38.9c-29.18,13.97-68.96,15.13-68.96,15.13l-7.71,27.68,7.71,26.72Z"/>
        <path class="cls-3" d="M945.66,508.28h-65.89c0-13.64,5.83-27.79,9.11-34.67,1.28-2.69,1.27-5.81-.02-8.5-3.28-6.82-9.1-21-9.1-35.83h65.89c0,16.64-6.57,30.7-9.93,36.81-1.15,2.08-1.2,4.59-.16,6.73,3.31,6.78,10.09,22.3,10.09,35.47Z"/>
        <path class="cls-4" d="M934.76,439.28c-1.79,10.17-5.79,18.37-7.79,21.99-2.71,4.92-2.85,10.87-.39,15.93,3.59,7.36,6.26,14.71,7.75,21.09h-43.45c1.78-8.67,5.26-16.65,7.03-20.37,2.6-5.45,2.59-11.69-.03-17.13-1.81-3.77-5.42-12.06-7.14-21.5h44.02m10.9-10h-65.89c0,14.83,5.81,29.01,9.1,35.83,1.29,2.69,1.3,5.81,.02,8.5-3.28,6.88-9.11,21.03-9.11,34.67h65.89c0-13.17-6.78-28.69-10.09-35.47-1.04-2.14-.99-4.64,.16-6.73,3.36-6.11,9.93-20.17,9.93-36.81h0Z"/>
      </g>
      <rect class="cls-5" x="940.28" y="622.01" width="127.79" height="127.79" rx="8.21" ry="8.21" transform="translate(-190.89 910.95) rotate(-45)"/>
      <rect class="cls-5" x="759.45" y="622.01" width="127.79" height="127.79" rx="8.21" ry="8.21" transform="translate(-243.85 783.09) rotate(-45)"/>
    </g>
  </g>
</svg>