<?xml version="1.0" encoding="utf-8"?>
<!-- Generator: Adobe Illustrator 25.0.0, SVG Export Plug-In . SVG Version: 6.00 Build 0)  -->
<svg version="1.1" xmlns="http://www.w3.org/2000/svg" xmlns:xlink="http://www.w3.org/1999/xlink" x="0px" y="0px"
	 viewBox="0 0 1000 1000" style="enable-background:new 0 0 1000 1000;" xml:space="preserve">
<style type="text/css">
	.st0{fill:url(#SVGID_1_);}
	.st1{fill:#FFFFFF;stroke:#FC4289;stroke-width:2.9284;stroke-miterlimit:10;}
	.st2{fill:#FFFFFF;stroke:#FC4289;stroke-width:1.1714;stroke-miterlimit:10;}
	.st3{fill:#FEFEFE;}
	.st4{fill:#31007C;}
</style>
<g id="Palmeras_x5F_bg">
	<radialGradient id="SVGID_1_" cx="538.4289" cy="476.1978" r="419.1501" gradientUnits="userSpaceOnUse">
		<stop  offset="0" style="stop-color:#F7EF16"/>
		<stop  offset="0.0802" style="stop-color:#F8C31A"/>
		<stop  offset="0.1565" style="stop-color:#F8A01E"/>
		<stop  offset="0.2189" style="stop-color:#F98B20"/>
		<stop  offset="0.2598" style="stop-color:#F98321"/>
		<stop  offset="0.4497" style="stop-color:#FD0035"/>
		<stop  offset="0.4947" style="stop-color:#F5063B"/>
		<stop  offset="0.5635" style="stop-color:#E0174B"/>
		<stop  offset="0.6476" style="stop-color:#BD3266"/>
		<stop  offset="0.7437" style="stop-color:#8D588B"/>
		<stop  offset="0.8485" style="stop-color:#5089BA"/>
		<stop  offset="0.9358" style="stop-color:#17B5E6"/>
	</radialGradient>
	<path class="st0" d="M718.65,468.46c4.56-8.71,10.92-16.23,16.03-24.57c1.61-2.63,3.89-5.06,3.86-8.42
		c-0.47-0.44-0.95-0.87-1.42-1.31c-4.2,5.16-8.4,10.32-12.6,15.48c-0.56-0.45-1.11-0.91-1.67-1.36c1.2-4.66,4.27-9.01,2.8-14.18
		c-1.85,0.25-2.15,1.94-2.9,3.13c-5.79,9.25-12.31,18.15-17.03,27.91c-3.35,6.94-8.66,12.2-12.47,18.62
		c-22.46,37.95-41.24,77.63-54.5,119.69c-18.01,57.11-37,113.94-51.95,171.97c-2.41,9.35-4.94,18.69-5.86,28.5
		c7.71-10.71,14.68-21.92,25.49-30.04c-10.11,14.77-20.31,29.48-27.17,46.61c4.9-4.51,9.8-9.02,14.7-13.54
		c-1.95,6.81-6.12,12.04-10.22,17.18c-4.37,5.47-7.58,10.9-7.08,18.29c0.35,5.19-0.47,10.46-0.84,16.89
		c7.06-5.55,12.45-11.62,20.94-14.59c-7.94,10.56-21.69,16-21.8,32.39c18.42-13.61,36.88-25.01,58.79-29.41
		c-19.69,14.7-43.66,23.03-61.12,41.07c10.53-2.72,18.13-12.83,31.77-11.7c-8.3,4.45-15.63,7.58-21.73,12.95
		c2.23,1.44,3.48-0.86,5.55-0.41c-1.21,3.02-5.3,3.15-6.31,6.95c3.94-1.8,7.45-3.39,10.94-5.01c3.43-1.59,6.97-2.56,12.37-2.46
		c-8.74,3.93-16.98,6.12-21.29,13.95c-69.32,0-138.64,0-207.95,0c-4.77-3.02-10.62-3.03-15.59-5.57c-2.74-1.4-5.79-2.23-8.62-5.11
		c16.84-1.63,32.95-4.97,49.15,1.83c-9.9-5.7-15.11-14.98-21.87-24.74c10.99,3.18,17.82,10.77,25.81,16.43
		c0.49,0.4,0.99,0.81,1.48,1.21c0.81-1.02,0.28-1.85-0.36-2.68c-13.48-32.19-20.34-66.16-26.33-100.28
		c-3.87-22.04-6.48-44.28-8.42-66.62c-4.21-48.55-3.83-97.18-2.97-145.79c0.49-27.94,2.55-55.85,5.16-83.72
		c3.89-41.63,10.93-82.7,19.54-123.55c1.22-5.78-1.41-10.95-1.16-17.79c-4.74,6.98-4.7,14.17-7.15,20.62
		c-1.76,0.04-0.59-2.83-2.49-2.74c-1.91,6.62-2.05,13.91-7.35,19.98c-2.24-3.65-2.09-7.18-2.31-11.28
		c-4.62,5.72-4.54,12.31-5.33,18.33c-0.74,5.69-6.3,6.16-8.62,10c-0.92,1.52-1.91-0.56-1.91-1.94c0.07-12.29-0.78-24.6,0.69-36.86
		c0.53-4.4,0.58-8.78-0.53-13.23c-2.59,23.48-4.41,47.05-12.66,69.53c-3.13-15.8,1.85-31.59-0.49-48.3
		c-6.52,30.05-14.05,58.91-27.79,85.75c0.75-20.69,7.36-40.4,8.61-60.97c-7.78,16.68-8.67,35.51-16.47,52.27
		c-2.7-9.1-0.66-18.25-0.56-27.42c-4.13,8.13-5.22,17.06-7.57,25.62c-2.37,8.66-4.49,17.39-7.03,25.99
		c-0.69,2.32-1.25,6.19-4.34,5.79c-3.29-0.43-2.33-4.21-2.38-6.66c-0.15-7.36-0.05-14.72-0.85-22.4
		c-8.16,15.1-10.22,32.79-19.92,47.67c-0.91-19.38,4.65-37.42,9.21-55.77c-9.41,9.98-9.37,24.83-18.37,35.21
		c-1-5.71,1.66-17.97,6.06-31.01c3.35-9.93,9.34-18.54,13.58-28.11c-10.8,7.89-19.05,18.27-28.78,27.09
		c-0.27-0.39-0.54-0.78-0.81-1.17c9.36-15.15,15.94-32.05,28.62-45.09c3.28-3.38,6.52-6.8,10.93-11.4
		c-9.15,3.75-15.34,9.29-21.73,14.99c1.3-10.67,16.14-27.29,41.1-46.39c-4.24-0.37-5.95,0.34-13.91,6.18
		c-4.18,3.07-8.25,6.29-12.76,9.02c9.21-14.18,19.09-27.66,36.22-35.72c-5.31-1.04-8.04,1.43-10.96,2.95
		c-3.16,1.64-6.14,3.64-9.13,5.59c-2.95,1.93-5.81,3.99-9.19,5.35c14.24-20.05,37.7-28.04,56.2-42.65
		c-14.92,3.65-27.88,11.52-41.17,18.65c-0.19-0.23-0.41-0.44-0.64-0.64c9.72-11.52,22.18-19.64,34.69-27.63
		c9.9-6.33,20.17-12.09,30.76-18.39c-5.82-1.68-11.07,0.73-17.02,0.41c5.75-10.04,14.35-17.33,19.88-27.07
		c-10.41,5.34-18.5,14.94-32.31,17.1c5.69-5.79,10.67-10.41,13.27-16.77c0.74-0.65,1.34-1.6,0.57-2.31
		c-0.64-0.6-1.14,0.45-1.59,0.96c-7.1,5.94-14.85,10.92-23.07,15.76c-2.66-4.46,1.62-7.51,1.68-12.01
		c-3.95,3.41-7.87,6.87-11.88,10.22c-1.79,1.5-3.84,4.47-6.08,2.76c-2.55-1.95,0.08-4.79,0.9-7.12c1.16-3.27,4.8-5.06,6.07-9.94
		c-12.75,7.28-22.71,16.94-35.76,22.21c1.87-6.96,3.14-8.64,12.8-17.61c5.4-5.02,10.4-10.38,14.05-17.23
		c-14.51,11.39-31.17,18.9-47.18,27.74c5-5.63,8.72-11.9,13.37-18.8c-9.77,2.95-16.58,9.44-26,13.97c2.4-6.55,6.28-9.99,10.37-13.04
		c9.83-7.33,20.11-14.08,29.2-22.36c2.35-2.14,5-4.03,7.21-8.82c-27.15,13.07-47.15,34.92-74.14,45.82
		c1.67-5.08,3.31-7.42,9.04-11.94c11.14-8.79,21.91-17.97,31.33-28.64c0.38-0.5,1.14-1.37,1.08-1.44c-0.98-0.99-1.74-0.38-2.43,0.47
		c-9.55,4.97-17.49,12.38-26.83,17.69c-10.21,5.82-20.11,12.24-32.2,16.46c1.42-6.13,5.43-9.19,9.33-12.19
		c9.71-7.49,20.37-13.72,29.38-22.14c0.39-0.49,1.17-1.35,1.1-1.43c-0.94-1.03-1.72-0.39-2.44,0.4
		c-12.86,5.48-24.71,12.75-36.4,20.32c-8.53,5.52-17.32,10.51-29.28,11.35c11.36-8.73,23.47-14.25,32.09-24.47
		c-16,6.14-32.44,10.01-49.37,12.35c6.72-7.36,16.43-9.43,24.63-14.41c-17.07,2.13-33.88,7.23-51.57,2.8
		c8.71-2.92,17.23-7.15,26.18-8.49c17.64-2.64,33.27-11.21,50.31-15.36c3.63-0.89,7.36-1.67,11.07-1.88
		c9.52-0.52,16.94-6.76,25.79-9.03c0.81-0.21,1.2-0.63,1.45-1.46c3.47-11.48,12.24-19.25,19.61-28.01c1.72-2.05,3.2-4.31,4.35-6.83
		c-3.74,1.36-6.11,4.26-8.72,6.81c-10.27,10.05-19.99,20.69-31.58,29.31c-2.56,1.91-5.21,3.74-8,5.29
		c-1.14,0.63-2.65,2.11-4.01,0.87c-1.28-1.16-0.41-2.96,0.01-4.32c2.01-6.47,7.32-10.75,10.79-16.54
		c-15.92,8.58-28.2,23.66-47.24,26.16c2.81-4.36,7.07-7.75,11.46-10.9c5.34-3.84,9.31-9.03,13.95-13.47
		c17.03-16.3,34.52-32.23,55-44.32c23.97-14.15,49.15-17.74,75.78-8.42c11.68,4.09,24.07,5.58,35.74,9.82
		c17.41,6.32,31.47,16.73,41.54,32.39c2.53,3.93,4.87,8.11,9.48,10.14c0.54,0.84,1.19,1.38,2.24,0.85
		c-0.35-0.57-0.69-1.14-1.04-1.72c-2.92-4.75-6.33-9.25-7.99-14.98c3.29-0.54,4.32,3.87,8.05,2.87
		c-4.84-9.88-15.27-15.19-20.37-24.92c4.1-1.02,6.54,2.71,11.3,2.18c-7.48-5.29-13.36-10.85-19.14-18.3
		c10.7,2.19,18.62,7.42,27.02,12.49c0.8-4.79-2.27-7.02-4.91-8.67c-9.31-5.82-16.05-14.17-23.98-22.93
		c11.55,1.48,19.25,9.31,29.32,13.2c-0.09-4.66-2.68-7.41-5.6-9.59c-8.41-6.28-17.33-11.88-24.95-19.43
		c5.72-1.01,10.64,4.11,17.52,3.02c-7.22-10.18-18.86-13.79-27.95-22.63c10.6,1.74,20.15,2.11,29.47,5.71
		c-5.9-8.01-10.29-16.75-15.17-26.1c16.45,4.24,21.35,18.13,28.01,31.27c2.31-9.87-0.22-18.6-1.85-27.54
		c6.61,11.06,8.6,23.83,13.66,36.09c0.79-8.43-0.74-16.51,1.81-24.89c1.72,4.09,2.64,7.86,3.17,11.78
		c0.58,4.29,1.58,8.53,1.93,12.83c0.34,4.12,0.07,8.28,0.07,13.65c3.2-4.33,3.5-9.22,8.12-12.45c-0.63,13.69-1.78,26.47-6.98,40.17
		c4.66-3.86,7.15-7.92,11.76-10.71c-0.17,8.57-5.27,14.7-7.54,21.77c-0.8,0.65-1.24,1.66-0.57,2.34c0.58,0.6,1.2-0.26,1.57-0.87
		c1.53-0.97,3.05-1.95,4.91-3.13c0.24,4.79-2.26,8.84-2.5,13.27c-2.41,5.66-6.39,10.79-6.98,17.07c0.54,0.2,1.09,0.39,1.63,0.59
		c2.14-5.85,4.29-11.7,6.43-17.55c4.59-9.64,8.31-19.73,14.4-28.59c1.22-1.77,1.71-4.78,5.64-3.34c1.55,0.57,3.03-2.8,4.22-4.68
		c4.1-6.48,7.78-13.31,14.38-18.14c1.23,2.63-1.98,4.4-0.06,7.28C496.6,93.96,508.07,86.56,518,76.7
		c-0.24,5.64-4.72,8.39-6.29,13.35c13.83-9.68,28.9-15.94,46.07-16.86c-15.63,8.41-30.45,18.01-43.96,29.85
		c11.05-2.57,21.75-7.04,35.11-6.4c-10.57,7.38-21.66,9.33-32.62,13.82c5.96,1.33,10.81-0.63,17.26-0.46
		c-11.91,4.99-22.49,9.42-33.07,13.85c7.3,0.93,14.45-1.35,23-0.52c-12.33,7.51-25.4,10.31-38.16,16.79
		c7.38,1.2,13.52,0.87,19.59-0.86c2.69-0.76,5.32-2.08,8.07-0.46c1.91,1.13,2.23-0.69,2.88-1.52c15.41-19.66,36.73-25.9,60.42-26.24
		c16.12-0.23,32-1.87,47.53-6.24c2.55-0.72,5.03-0.72,7.67-0.36c-9.29,3.93-17.87,9.1-28.39,14.37c9.02,0,16.36,0,23.7,0
		c-9.69,7.27-21.33,5.93-33.02,8.4c6.62,2.33,13.13,2.01,18.76,5.63c-4.49,3.67-9.54,3.66-14.5,3.64c-4.88-0.02-9.75-0.42-14.9,0.2
		c5.19,2.11,10.38,4.21,16.61,6.74c-12.62,3.24-23.66-1.21-36.18-1.65c6.89,4.85,14.62,4.76,21.58,10.29
		c-18.24-0.02-34.98-6.42-52.73-0.51c12.61,2.07,24.19,3.97,35.78,5.88c-0.01,0.64-0.01,1.28-0.02,1.93
		c-13.07,2.49-26.75-2.03-39.79,2.94c18.35,2.74,36.7,5.48,54.97,8.2c-2.29,3.33-2.29,3.33-25.71,4.35c4.33,3.1,9.25,2.9,14.81,5.7
		c-14.61,3.24-27.87-0.46-42.09-0.17c4.52,2.12,8.76,2.59,12.04,6.66c-14.04,1.34-27.16-4.54-41.86-1.45
		c8.34,5.81,17.27,3.22,25.53,5.76c-2.53,2.83-5.5,3.49-8.59,3.86c-3.58,0.43-4.41,1.91-1.89,4.74c-10.9,0.88-21.5,2.94-31.57,8.18
		c1.67,0.97,3.08,0.77,4.44,0.29c7.84-2.79,15.95-4.55,24.05-6.38c1.3-0.29,2.67-0.32,3.12-1.93c1.8,1.47,3.43,0.33,5.17-0.23
		c25.2-8.12,51.12-10.95,77.4-9.19c14.59,0.98,29.1,3.55,44.17,9.89c-11.36,0.74-21.61-1.53-32.38,4.35
		c5.79,0.7,9.94,0.53,14.15-0.17c14.44-2.39,27.38-0.26,36.94,12.9c-5.3-0.58-10.12-3.08-16.15-1.87c3.32,1.59,6.02,2.95,8.78,4.19
		c11.07,4.97,21.46,10.89,29.44,20.35c1.17,1.39,2.75,2.43,4.14,3.63l0.08-0.11c-1.16,2.89-3.02,1.19-4.46,0.5
		c-3.39-1.6-6.68-3.44-10.01-5.17c-4.95-2.58-9.78-5.51-15.85-5.71c1.08,3.02,3.32,3.98,5.83,5.02
		c10.95,4.59,22.07,8.91,31.18,16.91c0.37,0.38,0.75,0.76,1.12,1.15c0.07,0.69,0.42,1.1,1.14,1.14c0.34,0.33,0.89,1.01,0.98,0.95
		c1.08-0.7,0.08-1.1-0.29-1.6c-0.33-0.39-0.66-0.79-0.99-1.18c-0.33-0.37-0.66-0.73-0.99-1.1c-2.34-3.1-4.67-6.2-7.01-9.3
		c0.17-0.14,0.34-0.29,0.51-0.43c4.04,1,5.92,5.55,11.41,6.75c-7.01-10.51-15.26-18.6-22.56-28.46c2.98,0.03,4.07,1.69,5.33,2.84
		c24.59,22.57,39.77,51.04,51.25,81.82c1.44,3.85,3.03,7.67,4.07,11.64c0.69,2.63,2.16,3.8,4.56,4.32c0.66,0.72,1.44,0.92,2.35,0.53
		c-0.33-0.53-0.66-1.06-0.98-1.59c-1.75-2.77-1.62-3.33,0.62-2.78c1.21,0.3,2.16,1.59,3.67,0.89c0-0.29,0.12-0.78-0.02-0.87
		c-6.2-3.79-6.07-11.24-9.69-16.65c3.57-1.71,5.83,1.79,8.83,2.03c0.63,0.9,1.49,1.73,2.4,0.64c0.51-0.61-0.5-1.12-1.08-1.48
		c-5.78-3.33-6.53-10.04-10.27-15.25c4.56,0.64,7.86,3.78,13.53,5.1c-4.62-5.38-9.62-7.95-14-11.37c0.7-1.47,2.44-0.07,3.81-1.05
		c-2.59-3.68-6.33-6.1-9.59-9.61c5.72,2.58,11.93-0.85,17.98,1.69c-3.77-3.19-7.59-6.32-11.27-9.61c-0.79-0.7-4.15-1.25-0.57-3.26
		c1.11-0.62-0.8-1.83-1.57-2.37c-1.83-1.28-3.72-2.43-5.01-4.38c3.5-1.8,5.49,2.6,9.06,1.58c-3.07-4.3-7.29-7.04-10.85-10.45
		c0.28-0.29,0.55-0.58,0.83-0.88c1.72,0.52,3.44,1.04,4.84,1.47c2.2-5.82-0.83-9.58-4.62-13.05c0.28-0.28,0.56-0.55,0.84-0.83
		c4.22,1.1,7.04,4.73,12,6.68c-4.02-9.56-9.31-17.39-13.91-25.75c9.91,5.22,16.66,13.44,21.82,23.44c0.27-5.22,1.28-10.4-1.07-15.47
		c8.45,7.22,7.56,18.18,10.86,28.01c2.27-4.45,2.08-9.53,6.38-13.75c0.35,7.97,0.58,14.91-0.46,22.65c4.19-4.06,2.49-9.8,5.72-13.76
		c3.1,10.91-2.43,20.34-4.29,30.17c2.26,0.65,1.97-1.89,3.46-2.03c1.24,3.96-3.09,6.91-1.41,11.92c5.26-7.27,4.62-16.56,11.26-23.88
		c1.01,9.89-3.11,17.32-5.3,25.12c-0.91,0.54-1.17,1.26-0.61,2.2c0.51-0.39,1.02-0.79,1.53-1.18c2.51-3.68,5.02-7.37,7.53-11.05
		c-1.63,12.84-9.79,22.92-13.65,34.75c0.27,0.96-1.91,1.86-0.33,2.63c1.11,0.55,1.28-0.95,1.64-1.75c2.4-3.63,4.79-7.26,7.19-10.9
		c-0.56,14.77-13.22,23.58-17.06,36.67c4.57-2.89,5.34-8.79,10.24-11.8c1.23,4.32-0.83,7.83-2.31,11.11
		c-2.83,6.29-6.19,12.36-9.63,18.36c-4.59,7.99-7.61,16.62-10.93,25.15c-0.21,0.9-1.6,1.55-0.52,2.69c-3.9,1.68-4.23,5.32-4.62,8.9
		c1.97-2.74,3.8-5.56,4.46-9c1.44-0.66,1.94-1.5,0.49-2.69c2.64,1.06,2.82-1.4,3.54-2.68c2.84-5.07,5.12-10.48,8.34-15.28
		c2.03-3.02,1.49-9.02,7.84-8.08c0.3,0.05,0.92-1.52,1.27-2.39c1.19-2.91,1.22-2.83,4.38-4.56c0.68-0.37,0.99-1.54,1.32-2.39
		c1.69-4.28,3.34-8.58,5.66-12.7c0,2.35,0,4.7,0,7.05c3.24-7.04,4.71-14.83,10.57-21.97c-1.35,6.17-3.63,10.93-3.19,16.35
		c4.21-10.01,8.47-19.95,16.36-28.25c0.44,4.04-3.47,6.15-3.26,9.63c4.16,0.65,3.61,0.4,7.25-4.91c1.85-2.7,3.82-5.31,6.73-7.38
		c-2.68,5.81-5.36,11.62-8.09,17.53c2.22,0.67,2.59-1.03,3.01-1.99c3.77-8.51,10.65-14.56,16.73-21.24
		c0.65-0.71,1.37-2.23,2.57-0.96c0.42,0.45-0.04,1.74-0.11,2.65c-1.28,0.95-2.58,1.87-3.11,3.48c-0.71,0.06-1.1,0.43-1.12,1.15
		c-0.6,0.59-1.2,1.18-1.79,1.77c-0.27,0.53-1.21,1.04-0.11,1.6c0.11,0.06,0.6-0.62,0.91-0.96c0.59-0.58,1.17-1.16,1.76-1.74
		c0.34-0.37,0.68-0.73,1.02-1.1c1.25-1.37,2.51-2.74,3.76-4.11c4.48,1.66-2.69,4.03,1.23,5.77c5.5-5.92,9.01-14.5,16.88-19.63
		c0.76,4.13-2.9,6.64-2.87,10.46c5.92-4.24,10.24-9.93,16.49-13.6c1.05,2.54-2.29,3.46-1.51,6c5.84-1,10.7-6.05,17.21-4.87
		c-7.65,4.21-14.7,9.15-21.79,14.5c3.88,0.16,7.68-1.75,11.69-0.63c-6.37,6.43-14.6,8.73-22.81,11.32
		c6.05,2.25,12.19-0.48,18.2,1.04c-8.8,2.87-18.35,2.88-27.38,8.09c5.71,1.91,10.95-0.32,15.97,1.37
		c-6.23,6.24-15.45,2.29-22.01,6.83c1.38,1.86,4.36,1.31,5.51,3.67c-5.18,2.45-10.35,4.89-16.65,7.87c3.59,0.57,6.32,0.61,8.84,2.48
		c-5.9,2.99-12.03,0.7-18.89,1.88c6.71,3.6,13.53,1.69,19.44,4.49c-3.26,2.58-6.96,1.82-10.48,1.88c-3.63,0.06-7.25,0.01-10.9,0.36
		c1.87,1.09,4.31,0.65,5.54,2.82c-2.8,0.69-5.83,0.42-8.55,1.86c5.74,2.17,6.49,1.99,8.39-2c1.6-0.06,3.25-0.01,3.97,1.68
		c0.12,0.28-1.16,1.17-1.77,1.79c0.15,0.36,0.26,0.71,0.38,1.05c0.12-0.09,0.24-0.18,0.37-0.27c-0.31-0.27-0.63-0.54-0.94-0.81
		c1.09,2.18,2.19,0.33,3.13-0.09c8.4-3.74,16.77-7.54,25.12-11.36c2.73-1.25,5.47-2.34,9.86-2.1c-6.89,3.85-13.28,6.39-17.91,11.81
		c11.79-4.18,23.14-10.22,36.61-7.72c-5.36,2.9-11.4,4.07-16.08,8.09c10.77-0.18,21.44-4.16,32.05,0.07
		c-6.51,0.43-12.99,0.74-19.04,4.22c15.81,0.82,30.82,4.69,45.86,10.61c-3.5,2.86-7.44,0.62-10.89,1.98
		c16.19,7.33,31.76,15.48,44.89,27.64c-11.09-2.25-20.11-9.08-30.14-13.64c-0.33,0.39-0.66,0.79-1,1.18
		c2.41,2.17,4.81,4.34,7.22,6.51c-0.38,0.27-0.76,0.54-1.13,0.82c-4.94-2.08-8.62-5.96-12.91-8.98c-2.85-2-5.55-4.35-10.79-5.29
		c9.54,13.04,20.66,22.83,29.33,34.72c-7.82-2.64-13.34-8.72-20-12.9c-1.19,1.12,0.62,2.94-0.91,3.56
		c-1.55,0.63-2.28-1.02-3.08-1.94c-4.44-5.14-8.74-10.41-13.21-15.51c-1.24-1.41-2.2-3.48-5.38-3.52
		c3.48,6.59,9.79,10.89,11.45,19.11c-5.54-4.18-9.27-8.75-13.29-12.98c-7.54-7.92-14.93-16-24.4-21.74
		c-0.54-0.85-1.26-1.15-2.21-0.7c0.34,0.54,0.68,1.08,1.02,1.61c5.75,7.82,12.45,14.96,17.24,23.46c0.78,1.38,4.62,3.71,0.09,5.56
		c0.44,0.96,0.85,1.94,1.33,2.88c1.43,2.8,4.4,4.88,4.02,8.53c-2.15,0.06-2.48-1.98-3.36-3.17c-6.41-8.58-13.77-16.3-21.14-24.01
		c-0.57-0.49-1.15-0.99-1.72-1.48c-0.07-0.71-0.45-1.09-1.18-1.09c-0.34-0.39-0.68-0.79-1.02-1.18c-0.34-0.68-0.82-1.13-1.62-0.85
		c-0.14,0.05-0.26,0.67-0.19,0.72c0.63,0.4,1.3,1.32,1.96,0.05c-1.33,0.81-0.19,1.31,0.23,1.9c0.32,0.37,0.63,0.74,0.95,1.11
		c0.58,0.63,1.17,1.25,1.75,1.88c4.56,7.3,10.48,13.64,14.17,21.6c1.64,3.53,6.09,4.81,9.55,6.59c1.5,0.77,0.89-1.49,1.52-2.18
		c3.42,5.54,7.27,10.75,12.94,15.55c-2.17,0.23-3.48,0.36-4.54,0.47c7.57,8.15,15.15,16.31,22.18,23.88
		c-3.15-2.14-7.03-4.77-10.91-7.41c-0.44-0.44-0.74-1.37-1.56-0.76c-0.81,0.61-0.02,1.17,0.28,1.72c6.42,8.34,13.63,16.2,16.3,26.81
		c0.27,1.06,0.39,2.15,0.89,5c-6.01-7.47-10.1-14.47-17.94-20.16c4.92,12.49,13.1,22.32,13.25,36.33c-3.7-4.16-4.91-8.71-8.91-11.11
		c1.98,9.45,3.99,18.69,2.13,29.47c-3.65-6.57-3.39-13.34-6.62-19.17c-2.64,10.18-1.58,20.56-5.67,30.09
		c-0.1-9.87-1.85-19.51-2.89-30.39c-2.05,5.62-2.47,10.72-6.84,15.58c0.44-11.7,1.93-22.41,0.5-33.26
		c-4.28,9.55-4.24,20.71-11.16,30.8c-2.05-13.58,2.58-25.29,2.12-37.53c-2.24,6.84-4.49,13.68-7.09,21.6c0-9.08,0-16.97,0-24.86
		c-0.28-0.1-0.56-0.21-0.83-0.31c-2.13,6.08-4.25,12.17-6.38,18.25c-2.96-15.14,1.17-29.81,2.23-44.7
		c-7.24,10.44-7.29,23.79-15.01,35c-2.11-7.81,1.88-14.51,0.15-21.57c-3.18,2.54-3.5,6.65-6.24,9.92
		c-1.69-8.22,2.16-15.86,0.63-24.14c-3.03,5.63-3.48,12-7.62,17.56c-2.56-8.44,1.19-16.14-0.43-24.36
		c-2.77,4.51-3.26,10.06-8.09,13.68c-1.64-7.45,0.59-14.71-1.84-22.8c-1.86,4.53-2.05,8.41-4.83,12.63
		c-1.58-8.26-2.94-15.38-4.31-22.49c-0.25,0.04-0.51,0.08-0.76,0.12c-0.65,8.08-1.31,16.16-1.96,24.24c-0.42,0-0.83-0.01-1.25-0.01
		c-0.94-3.9-1.88-7.81-3-12.42c-1.59,3.3-1.55,6.56-3.83,9.14c-3.05-6.35-1.18-14.42-7.58-19.86c-2.15,5.55,0.98,10.79-0.26,17.69
		c-3.79-9.18-10.74-14.33-14.45-22.47c-1.92,10.65,0.53,16.09,8.8,21.45c16.97,11.01,31.16,24.99,44.24,40.36
		c15.88,18.65,29.15,38.8,38.58,61.44c2.76,6.62,4.4,13.5,5.22,20.59c0.08,0.66,0.75,2.04-0.84,1.94c-0.46-0.03-0.35-1.45-1.69-1.44
		c0.75,10.25,4.16,20.31,2.13,31c-1.31-3-1.1-6.44-3.66-9.82c-1.11,9.83-1.16,19.02-3.51,27.89c-0.5-12.64-1.22-25.22-4.71-37.72
		c-1.34,6.34-2.68,12.68-4.02,19.02c-0.49-0.02-0.98-0.04-1.47-0.05c1.12-12.09,1.21-24.13-1.08-37.74
		c-4.47,15.63-0.49,31.28-8.25,44.64c0.44-13.32,1.87-26.55,0.31-40.73c-5.34,6.29-7.64,13.24-11.47,19.38
		c0.5-13.1,5.24-25.46,6.25-38.48c-4.51,6.67-7.43,14.07-10.91,22.43c-0.72-5.85,2.05-10.57,0.65-15.96
		c-2.87,4.65-3.39,10.4-8.75,13.39c-1.55-10.99,1.67-21.48,2.37-33.07c-3.51,4.33-3.48,9.56-7.45,13.42
		c-1.03-6.57,1.46-12.58-0.15-19.64c-2.99,6.19-5.53,11.44-8.06,16.7c-0.25-0.07-0.51-0.14-0.76-0.21c0-6.97,0-13.94,0-21.39
		c-3.37,3.74-3.35,8.99-6.87,13.3c-0.95-6.13,1.21-11.45,0.06-17.07c-0.89,0.96-1.67,1.79-2.72,2.92
		c-0.04-10.7,3.68-20.79,2.87-32.63c-5.18,8.58-4.23,17.66-6.86,25.61c-2.46-0.46-1.94-2.07-1.96-3.24
		c-0.03-1.67-0.45-3.02-2.04-3.7c-0.33-0.14-1.1,0.21-1.35,0.56c-0.94,1.28-0.16,2.51,0.31,3.73c1,2.55,2.77,4.82,3.03,8.93
		c-10.38-9.26-15.7-21.89-26.78-29.04c8.29,14.45,20.62,26.38,25.75,42.63c-4.08-3.99-7.54-8.42-12-11.88
		c-0.51-0.39-1.37-1.18-1.46-1.09c-1.08,0.95-0.24,1.74,0.37,2.52c2.71,5.55,7.17,10.11,9.13,16.08c-0.33,0.27-0.67,0.54-1,0.81
		c-5.85-6.03-9-14.25-16.7-20.78c3.38,13.04,14.75,22.26,11.39,37c-5.09-5.78-6.77-12.59-12.75-16.41
		c3.26,9.67,5.34,19.46,5.29,29.71c-4.16-10.07-6.79-20.8-13.86-29.52c1.13,15.36,11.47,29.14,8,45.92c-2.41-1.92-1.47-4.84-3.6-6.2
		c-0.45,3.45-0.01,6.92-2.19,10.84c-0.73-8.14-1.38-15.41-2.03-22.68c-0.47,0.01-0.94,0.02-1.41,0.04
		c-0.31,3.91-0.44,7.85-0.97,11.74c-0.58,4.28,0.01,8.63-1.41,12.89c-1.29,3.88-2.72,7.54-5.5,10.62
		c0.85-5.87,1.22-11.62,0.41-18.98c-4.9,12.59-8.42,24.58-20.11,32.45c0.93-7.23,4.6-12.58,6.04-18.62
		c0.86-0.58,1.17-1.56,0.53-2.18c-0.59-0.58-1.08,0.38-1.5,0.86c-0.67,0.3-1.49,1-1.99,0.82c-1.78-0.62-0.55-1.73-0.17-2.63
		c1.45-3.52,4.2-6.59,3.9-11.14c-5.99,4.57-9.56,11.11-16.23,15.74c0.92-6.83,6.36-10.16,8.45-15.3c1.03-0.4,1.32-1.32,0.71-2.01
		c-0.54-0.61-1.17,0.04-1.49,0.7c-1.44,1.18-2.88,2.35-4.93,4.03c0.16-8.08,7.02-12.08,9.69-19.43
		c-8.88,6.42-15.13,14.11-24.09,19.62c0.4-4.5,2.88-6.96,5.25-9.36c8.25-8.34,16.74-16.44,24.82-24.93
		c3.28-3.45,6.78-7.12,7.12-13.65c-11.51,7.73-18.86,19.13-31.29,26.75c2.74-9.5,9.44-14.86,12.75-22.35
		c-6.78,4-11.04,11.22-19.23,14.92c6.32-11.28,11.82-21.98,20.58-30.54c1.47-1.43,3.13-2.77,3.76-4.88
		c0.39-0.74,0.78-1.48,1.17-2.22c0.52-0.45,1.11-0.88,0.3-1.57c-0.27,0.35-0.55,0.69-0.82,1.04c-0.96-0.09-1.25,0.67-1.65,1.3
		c-4.83,3.03-8.51,7.67-14.71,10.71c3.75-10.51,12.13-16.64,16.83-25.19c0.91-0.59,1.07-1.64,0.48-2.23
		c-0.62-0.61-1.06,0.4-1.48,0.86c-5.27,4.14-10.55,8.28-15.95,12.51c-1.22-2.37,1.11-3.61,1.13-5.38c0.76-0.66,0.98-1.66,0.39-2.28
		c-0.6-0.62-1.11,0.23-1.48,0.78c-2.08,0.74-3.04,3.45-5.72,3.3c-1.39-1.93,0.79-2.98,1.07-4.47c0.32-1.69,3.86-3.26-0.09-5.14
		c-1.2-0.58,0.55-1.86,0.99-2.77c3.45-7.16,8.66-13.16,13.04-19.71c2.88-4.3,5.99-8.58,6.42-15.94c-6.87,9.57-13.1,17.6-21.72,23.25
		C719.13,468.91,718.89,468.68,718.65,468.46z M828.15,375.89c0.29,0.53,0.44,1.51,1.32,0.85c0.81-0.61,0.09-1.11-0.41-1.54
		c-0.55-0.36-1.01-1.22-1.74-0.34C827.26,374.93,827.86,375.54,828.15,375.89z M700.57,254.91c0.51-0.09,1.03-0.17,1.54-0.26
		c-0.22-0.23-0.45-0.46-0.67-0.7c-0.29,0.36-0.57,0.72-0.86,1.09c1.9-2.21,0.31-2.84-2.16-3.89
		C699.38,252.84,699.98,253.89,700.57,254.91z M707.97,284.74c-0.19-0.4-0.38-0.81-0.57-1.21c-0.22,0.18-0.45,0.35-0.67,0.53
		c0.36,0.27,0.72,0.54,1.08,0.8c0.21,0.41,0.41,0.83,0.62,1.24c0.2-0.24,0.62-0.53,0.57-0.7
		C708.89,284.97,708.79,284.23,707.97,284.74z M694.83,273.06c0.52,0,1.05,0.01,1.57,0.01c-0.13-0.26-0.25-0.51-0.38-0.77
		c-0.41,0.3-0.82,0.6-1.23,0.9c-0.18-0.42-0.36-0.84-0.54-1.25c0.16-0.04,0.4-0.17,0.48-0.11
		C695.19,272.22,695.35,272.65,694.83,273.06z M835.27,381.28c-1.22-1.96-2.65-3.66-5.41-4.84c0.79,3.15,2.89,4.19,4.42,5.71
		c2.46,2.28,3.19,6.45,8.41,7.92C839.72,386.26,837.99,383.36,835.27,381.28z M698.71,274.65c-0.33-0.3-0.67-0.61-1-0.91
		c-0.05,0.29-0.1,0.59-0.15,0.88c0.42-0.04,0.84-0.08,1.26-0.13c1.05,4.06,4.66,5.76,7.54,8.12
		C704.33,279.47,703.06,275.59,698.71,274.65z M448.14,227.53c8.4-4.55,16.8-9.1,25.45-13.79c-9.94-0.01-18.59,4.39-26.09,13.09
		c-0.34,0.28-1,0.76-0.97,0.81C447.1,228.55,447.61,227.89,448.14,227.53z M298.64,162.05c-7.51,7.07-12.92,16.07-21.3,22.37
		c4.79,0.39,8.29-1.14,10.77-5c3.63-5.65,7.46-11.17,11.2-16.75c0.4-0.52,0.97-1.03,0.13-1.61
		C299.4,161.05,298.91,161.71,298.64,162.05z M700.3,368.57c2.21,6.38,10.79,12.05,16.56,10.73c-2.73-2.97-5.96-4.79-11-5.4
		c3.01-1.89,4.92-3.1,7.73-4.87c-5.26,0.6-9.4,1.34-13.43-0.35c0.7-3.58,4.95-1.92,7.44-5.02c-5.13,0.41-9.36,0.87-14.47-1.29
		c4.77-2.25,8.61-4.07,13.96-6.59c-8.02-1.88-13.56,2.09-19.78,2.77C691.86,361.85,694.43,367.32,700.3,368.57z M321.34,175.66
		c-3.1,2.06-5.75,4.57-8.33,7.93c3.54,0.51,6.58,0.6,9.41,1.42c4.17,1.21,6.2-0.24,8.37-3.91c3.93-6.64,9.15-12.43,14.43-18.1
		c1.5-1.61,2.97-3.26,5.47-6.02c-14.14,5.12-18.79,18.84-30.6,24.42c0.71-1.69,1.43-3.38,2.14-5.07c0.26-0.55,0.9-1.13-0.01-1.6
		C322.11,174.68,321.64,175.34,321.34,175.66z M542.02,365.63c-4.37-1.33-8.03,3.54-13.18,1.45c6.49-5.04,13.7-7.08,20.64-9.81
		c2.1-0.82,6.48,0.02,5.78-3.81c-0.56-3.03-4.26-0.68-6.35-1.6c-0.24-0.1-0.43-0.32-0.61-0.46c2.14-2.13,6.87,0.51,7.43-4.95
		c1.12-11.04,0.7-22.24,3.13-33.15c0.17-0.75,0.57-1.89-1.62-2.28c-2.74,11.37-2.32,23.82-9.94,33.74
		c-0.92-6.86-1.19-13.57-0.33-20.3c1.03-8.05,1.97-16.11,2.85-24.18c0.12-1.11,0.88-3.03-1.2-3.11c-1.7-0.07-1.78,1.73-1.95,2.98
		c-0.53,3.93-0.74,7.91-1.45,11.81c-0.93,5.1-0.96,10.62-5.83,15.59c0.03-19-1.71-36.72-1.92-54.54
		c-1.58,14.85,0.48,29.99-4.8,45.62c-3.72-14.83-3.23-28.74-4.16-42.52c-6.62,12.11-2.6,25.53-5.6,39.73
		c-5.14-10.93-5.36-21.37-7.57-31.95c-3.15,5.71-3.57,11.62-5.69,18.04c-7.55-9.26-2.14-20.57-6.62-29.56
		c-1.11,4.16-0.66,8.66-2.27,12.24c-4.12,9.16,0.07,16.14,4.6,23.31c0.68,1.07,1.96,2.31,1.23,3.58c-1.29,2.24-2.77-1.82-4.24-0.17
		c3.08,6.41,7.55,11.66,12.8,16.41c8.46,7.67,13.06,17.64,16.9,29.66c-8.84-4.7-13.51-13.68-23.97-15.32
		c8.16,10.76,16.19,20.53,18.09,34.17c5.01-4.76,10.99-6.76,15.72-10.71c0.27-0.17,0.53-0.35,0.8-0.52
		c-0.17-0.06-0.37-0.2-0.52-0.16C541.62,364.97,541.58,365.26,542.02,365.63z M450.44,320.49c-3.72,2.14-6.31,5.42-8.62,8.89
		c-7.23,10.87-17.17,19.01-27.07,27.2c-0.32-0.22-0.63-0.43-0.95-0.65c5.98-13.12,14.6-24.58,22.73-36.35
		c3.27-4.74,6.8-9.37,7.35-16.33c-9.5,7.85-17.52,16.06-25.27,24.58c-2.25,2.48-3.43,5.16-4.06,8.43
		c-3.91,20.37-7.51,40.79-10.59,61.32c-4.61,30.68-8,61.49-9.62,92.45c-2.6,49.6-0.81,99.15,3,148.65
		c3.23,42.05,8.5,83.77,18.37,124.82c6.52,27.11,15.48,53.36,27.88,78.55c2.57-2.19,1.6-5.76,3.72-8.01
		c2.82,6.05-1.04,12.79,2.04,20.41c6.9-33.05,13.69-64.38,36.47-90.31c-4.54,10.82-5.99,21.43-7.31,32.05
		c-1.11,8.98-1.62,18.05-3.05,26.97c-2.31,14.33-9.33,26.94-15.92,39.58c-2.78,5.33-2.49,9.32,1.79,13.92
		c11.18-18.58,24.53-35.08,41.78-48.3c-1.16,4.21-2.93,8.11-4.31,12.15c-1.56,4.56-4.81,8.58-4.5,13.75
		c-2.96,0.74-2.99,3.67-4.06,5.71c-2.99,5.71-7.28,10.55-10.83,15.92c3.54-1.39,6.6-3.16,9.69-4.86c2.97-1.63,7.06-2.47,8.68-4.95
		c1.83-2.79-2.32-5.83-2.66-9.14c-0.02-0.18,0.06-0.37,0.1-0.56c0.49-0.89,1.31-0.86,1.76-0.21c3.17,4.53,9.9,4.95,11.94,11.2
		c1.2,3.67,4.57,6.75,9.87,2.69c-11.39-15.41-8.03-34.55-12.73-51.9c2.96,3.77,5.69,7.59,7.99,11.65
		c6.63,11.69,9.08,24.84,12.68,38.08c1.79-3.13-0.5-6.28,1.62-9.64c1.15,3.47,2.07,6.25,3.45,10.45c1.8-6.5,2.97-11.72,5.05-16.29
		c7.8-17.13,15.2-34.41,20.94-52.31c17.24-53.8,34.08-107.72,51.15-161.58c16.43-51.87,35.41-102.6,66.79-147.72
		c0.73-1.05,1.6-2.37,1.55-3.53c-0.3-7.44-0.84-14.88-1.3-22.32c-2.89,9.2-3.83,18.77-8.01,28.97c-2.26-11.32-2.02-21.5-3.38-31.51
		c-2.01,12.43-1.26,25.08-4.44,37.22c-3.99-9.83-1.43-20.11-3.76-30c0.34,16.42-2.17,32.39-6.58,48.08
		c-2.96-9.24,0.33-18.62-1.65-29.42c-2.81,9.86-0.28,19.07-4.7,27.3c-3.33-6.86,0.14-13.99-1.99-22.17
		c-2.13,9.49-3.94,17.54-6.05,26.91c-3.58-6.48-1.15-12.09-1.87-18.22c-3.67,10.82-0.95,21.93-6.07,31.7
		c-1.44-6.94-2.88-13.88-4.34-20.93c-1.54,4.12-1.83,8.34-2.02,12.63c-0.18,4.07,0.08,8.33-2.84,12.42
		c-0.38-4.94,0.26-9.44-3.07-14.21c-1.02,6.23-0.84,11.79-4.68,16.34c-0.9-2.49,0.36-4.95-1.31-7.78
		c-2.76,9.47-6.78,17.49-13.49,24.13c-1.21-2.43,1.5-4.35,0.23-6.97c-2.84,3.3-5.4,6.27-8.13,9.44c-1.21-2.8,1.28-4.53,0.33-6.87
		c-3.64,1.65-4.61,5.8-7.63,7.88l0.1,0.14c-0.2-7.3,4.15-13.46,5.91-21.41c-1.74,1.61-2.59,2.39-4.42,4.09
		c1.69-10.11,6.82-17.76,8.57-26.76c1.97-10.08,10.78-17.38,17.56-25.22c0.75-0.87,2.8-2.4,1.44-3.01c-3.98-1.8-0.81-3.18,0.11-4.17
		c5.59-6.07,11.89-10.73,16.08-18.94c5.76-11.3,17.8-18.25,29.86-23.24c4.81-2,5.97-4.14,2.48-8.65c-1.19,5.03-4.79,6.8-9.23,7.17
		c-0.52-3.32,0.11-6.88-2.08-11.2c-2.26,8.48-8.89,12.17-13.69,17.56c-1.66-3.14,1.58-5.81,0.3-9.04
		c-4.95,5.45-5.62,13.47-12.38,19.09c1.32-13.7,7.41-24.71,9.06-36.8c-3.95,7.11-6.74,14.63-8.71,22.45
		c-0.88,3.48-1.94,6.88-4.01,9.81c-1.79,2.52-3.83,4.19-4.46-1.22c-3.01,3.79-3.18,8.87-7.58,11.9c0-3.19,0-5.77,0-8.31
		c-3.48,0.79-1.08,9.14-7.56,5.11c-1.14,1.92-2.36,3.8-3.41,5.77c-1.08,2.02-2.41,3.8-4.27,5.15c-2.82-5.8-2.93,2.25-5.2,0.57
		c1.46-7.56,6.03-14.55,7.49-23.6c-5.11,3.66-6.8,8.37-9.48,12.32c-3.77,5.53-5.88,12.21-11.42,16.52c-0.25-0.26-0.53-0.5-0.83-0.7
		c1.97-4.55,3.94-9.1,5.9-13.66c0.06-0.45,0.31-1.17,0.13-1.31c-0.55-0.42-0.83,0.07-0.95,0.59c-5.55,6.57-11.1,13.13-16.65,19.7
		c-0.34-0.25-0.69-0.5-1.03-0.75c1.62-7.34,4.56-14.2,7.66-21c0.54-1.17,1.65-2.51-1.01-2.15c-0.35-0.23-0.69-0.46-1.04-0.69
		c4.15-9.05,13.01-14.59,17.14-23.94c2.35-5.31,8.28-8.61,11.85-13.9c4.55-6.74,12.44-11.1,20.2-13.91
		c9.22-3.33,14.35-10.17,19.01-17.91c0.13-0.37,0.26-0.75,0.39-1.12c-0.42,0.03-0.83,0.07-1.25,0.1
		c-6.83,5.65-14.19,10.66-20.46,16.99c-0.73,0.74-1.52,2.16-2.71,1.53c-1.48-0.78-0.47-2.36-0.49-3.59
		c0.02-0.46,0.04-0.93,0.06-1.39c-0.37,0.19-0.74,0.37-1.11,0.56c-1.65,1.16-3.3,2.32-5.76,4.05c2.82-9.47,11.68-13.81,14.76-22.02
		c-9.66,7.07-16.48,17.56-27.75,22.48c0.11-0.99,0.62-1.56,0.96-2.23c0.66-1.32,3.4-2.19,1.6-4.01c-1.35-1.37-2.63,0.71-3.89,1.32
		c-2.92,1.41-5.13,4.47-9.77,3.84c7.27-7.03,14.05-13.74,18.37-22.4c-9.33,4.56-16.38,12.3-26.78,17.82
		c3.02-6.26,7.26-9.56,10.17-13.84c0.7-0.33,1.26-1.01,0.65-1.56c-0.69-0.61-1.65-0.39-2.22,0.53c-5.8,2.55-9.18,8.76-16.48,11.01
		c7.22-12.16,18.56-19.01,27.42-28.22c-13.97,6.44-24.7,17.24-36.59,26.37c-0.35-0.48-0.71-0.97-1.06-1.45
		c5.31-5.6,10.63-11.2,15.94-16.8c-0.33-0.39-0.66-0.78-0.98-1.17c-6.02,2.56-12.03,5.11-18.05,7.67c2.55-3.99,5.54-7.08,9.19-9.46
		c1.04-0.68,1.79-1.49,0.99-2.75c-0.97-1.51-1.88-0.44-2.76,0.18c-7.29,5.2-15.61,8.22-24.01,10.95c-2.68,0.87-3.64,2.21-3.26,4.86
		c-4.27-1.92-4.16-8.41-10.12-8.91c7.18,16.96,16.69,32.81,14.23,51.96c-2.06-6.15-3.3-12.68-7.88-17.61
		c-5.52-5.94-8.72-13.05-11.01-20.69c-0.7-2.34-1.5-4.68-2.56-6.87c-0.58-1.18-1.11-3.24-3.02-2.62c-1.51,0.49-1.16,2.29-0.98,3.53
		c0.41,2.8,0.98,5.57,1.6,8.33c2.98,13.38,8.01,26.28,9.04,40.14c0.41,5.54-0.34,10.74-1.74,16.01c-2.98-8.12-3.93-16.89-11.63-24.2
		c0.86,20.78,7.7,40.22,0.71,59.7c-2.15-5.14-3.42-10.42-5.15-15.54c-1.7-5.05-2.47-10.63-6.97-14.48
		c2.94,20.68,4.12,41.37,5.16,63.01c-8.55-7.3-10.11-17.06-13.67-25.97c-1.38,0.88-1.26,2.12-1.23,3.14
		c0.58,23.31-13.42,41.92-20.25,63.59c-7.44-17.47,2-34.17,0.6-52.1c-5.9,8.51-5.14,18.58-11.29,26.33
		c-2.82-5.19-3.07-10.03-2.71-14.89c1.5-20.24,7.28-39.41,14.59-58.22c1.92-4.93,4.79-9.75,3.98-15.44
		c1.11,0.57,0.91-0.33,0.95-0.89c0.01-0.1-0.32-0.22-0.49-0.33c-0.12,0.45-0.23,0.9-0.35,1.35c-6.46,7.39-11.36,16.09-19.85,23.9
		c2.23-8.04,5.97-13.68,8.46-19.83c2.46-6.08,5.9-11.89,5.72-19.43c-12.92,10.15-23.84,21.2-32.53,34.4
		c5.56-20.36,11.71-40.3,25.86-56.68c-8.67,1.18-13.41,7.5-19.82,13.65c3.64-15.3,15.6-23.69,23.47-35.73
		c-4.25,0.99-6.73,2.96-9.21,4.92c-6.57,5.19-11.74,11.77-17.5,17.77c-1.42,1.47-2.53,3.87-5.65,2.58
		c13.17-13.89,16.63-33.79,30.63-47.07c-5.36,1.71-8.79,5.61-12.08,9.55c-7.37,8.86-14.51,17.92-21.89,26.78
		c-2.67,3.2-5.24,6.74-11.02,8.37c11.98-18.2,19.35-37.5,31.79-53.86c0.31-0.38,0.95-0.97,0.87-1.09c-0.68-1.03-1.13-0.13-1.63,0.29
		c-10.3,6.72-18.41,15.94-27.13,24.46c1.87-8.69,6.47-15.62,11.63-22.33c8.17-10.61,16.04-21.45,24.04-32.19
		c0.43-0.13,1.06-0.21,0.69-0.83C451.65,320.28,450.9,320.47,450.44,320.49z M589.42,263.09c-6.3-9.67-13.7-18.2-21.14-26.78
		c1.41,7.44,4.92,14.11,7.6,20.91c1.4,3.55,7.98,5.1,12.27,7.48c2.64,1.47,5.28,2.98,8.06,4.15c9.83,4.13,19.06,9.09,26.24,17.26
		c1.64,1.87,3.92,2.93,6.23,3.82c4.43,1.7,8.6,3.84,12.05,7.17c3.64,3.52,8.27,1.69,12.44,2.21c1.64,0.2,1.47-1.41,1.2-2.49
		c-2.16-8.7-1.93-17.85-5.25-27.32c-1.39,7.92-2.62,14.95-4.05,23.12c-10-19.01-7.97-39.55-13.45-58.73
		c-2.37,2.23-2.25,4.39-2.44,6.45c-0.9,9.69,0.17,19.25,1.97,28.75c1.26,6.65,0.77,13.26-1.75,17.85
		c-1.24-11.78-5.61-22.13-11.08-32.09c-0.68-1.24-1.02-3.56-2.84-2.79c-2.34,0.99,0.17,2.49,0.39,3.71
		c1.21,6.5,3.43,12.86,1.6,19.83c-2.94-6.27-5.88-12.53-9.22-19.67c-0.9,4.27,0.04,7.72-1.9,10.84c-2.6-2.18-2.93-5.44-5.56-6.97
		c-1.38,0.78-0.97,2.9-3.24,3.5c-10.25-13.73-11.71-31.2-18.08-46.66C580.59,232.61,585.03,247.78,589.42,263.09z M513.97,138.54
		c-11.35,5.2-18.02,15.94-29.9,18.36c4.85,1.7,8.79-1.92,14.13-1.37c-5.75,5.05-12.77,6.12-19.22,9.94
		c5.61,1.26,10.18-1.49,15.63-1.1c-4.94,5.41-11.63,5.83-17.43,8.9c3.62,0.82,6.83-0.69,11.15,1.26
		c-8.17,0.72-13.24,5.11-18.81,8.81c2.24,1.11,4.78-1.02,6.98,0.78c-6.45,6.15-15.15,6.85-22.46,10.49
		c4.72,0.93,9.01-2.51,14.46-0.56c-6.89,5.99-14.97,9.35-20.39,15.97c-5.37,6.56-11.6,12.71-11.99,23.16
		C466.37,204.7,495.22,176.5,513.97,138.54z M491.77,218.22c2.14,4.94,4.61,9.78,6.3,14.87c1.25,3.78,3.75,4.77,7.12,5.04
		c11.49,0.94,22.56,3.82,33.69,6.67c10.62,2.73,20.3,8.31,31.75,10.32c-1.83-2.37-1.94-5.12-4.37-6.43
		c-0.25,1.16,0.45,2.62-0.84,3.19c-1.01,0.44-1.52-0.74-2.07-1.44c-2.71-3.45-4.64-7.29-6.11-11.42c-0.78-2.19-1.1-4.82-3.7-6.43
		c0.82,3.16,1.61,5.84,2.17,8.57c0.28,1.37,1.14,3.18-0.77,3.98c-1.46,0.61-2.94-0.07-4.2-1.06c-3.44-2.71-6.34-5.89-8.88-9.47
		c-1.8-2.54-3.19-5.55-6.76-7.06c0.08,1.29,0.04,2.2,0.2,3.07c0.39,2.17,1.95,5.19-0.48,6.1c-1.62,0.6-4.59,1.03-6.75-0.73
		c-1.59-1.3-3.53-2.16-5.22-3.34c-5.01-3.48-9.22-7.88-14.02-12.88c1.03,6.27,3.88,10.92,6.09,16.6
		C504.45,232.95,500.74,222.75,491.77,218.22z M480.89,221.24c0.45,3.12,0.68,4.77,0.92,6.41c0.25,1.66,1.04,3.62-0.59,4.77
		c-1.48,1.05-3.18,0.31-4.71-0.66c-1.1-0.69-2.67-1.78-3.56-1.45c-7.18,2.71-14.56,0.56-21.81,1.17
		c-5.68,0.48-10.37,2.68-14.97,6.46c20.51-1.74,40.44-0.5,60.44-1.47C490.6,232.78,487.03,226.78,480.89,221.24z M385.28,204.02
		c4.04,5.03,7.63,9.86,11.6,14.36c5.01,5.68,10.61,10.73,17.29,14.48c1.02,0.57,1.94,1.23,3.12,0.82c0.84-0.29,0.81-1.07,0.76-1.87
		c-0.58-8.44-3.69-11.4-12.46-11.74c-1.41-0.06-2.82-0.01-4.84-0.01c2.68-4.93,7.78-6.05,11.1-10.27c-3.32,0-5.71,0.07-8.11-0.02
		c-3.48-0.13-8.94,1.8-9.99-0.8c-1.44-3.58,4.68-4.04,7.14-7.33C395.35,202.48,390.42,203.24,385.28,204.02z M323.51,156.43
		c-11.45,6.59-19.85,16.46-30.63,26.21c4.49,0,7.26-0.15,10.02,0.04c2.44,0.17,4.29-0.14,5.65-2.56
		C313.11,171.99,318.03,164.07,323.51,156.43z M728.61,401.28c0.28-0.37,0.57-0.73,0.85-1.1c-1.71-1.82-2.86-3.92-5.15-5.46
		c-11.74-7.87-24.28-14.34-36.65-21.08c-0.96-0.53-2.57-2.68-3.68-0.39c-0.58,1.2-0.17,2.84,1.55,3.8
		C699.91,385.07,714.25,393.19,728.61,401.28z M576,337.9c-0.01,0-0.01,0-0.02,0c0-2.27,0.02-4.54-0.01-6.8
		c-0.02-1.73,0.05-3.58-2.62-3.11c-1.87,0.33-4.52-0.78-4.9,2.37c-0.56,4.74-2.79,8.99-3.84,13.57c-0.25,1.09-1.26,2.33,0.79,3.23
		c7.28,3.2,10.33,1.43,10.59-6.42C576.02,339.79,576,338.84,576,337.9z M384.28,348.44c3.57-13.81,7.76-27.53,6.69-42.09
		C384.01,319.62,385.11,334.19,384.28,348.44z M666.74,300.16c-6.21-11.62-8.78-24.23-10.33-37.17c-1.75,10.4,0.51,20.46,1.61,30.63
		C658.67,299.56,661.58,300.94,666.74,300.16z M371.32,177.8c-9.89,2.86-20.13,4.52-29.5,10.23c4.52,1.11,8.75,3.61,12.43,1.58
		C360.28,186.27,365.67,181.79,371.32,177.8z M372.71,196.19c3.31,2.08,6.08,3.87,8.89,5.59c0.74,0.45,1.65,1.19,2.41,0.06
		c2.65-3.95,6.68-6.58,10.66-10.26C386.49,191.34,379.7,192.87,372.71,196.19z M435.26,241.16c9.38,5.64,17.7,9.7,26.57,12.59
		C455.26,246.18,448.5,238.99,435.26,241.16z M435.75,291.85c-7,6.65-15.03,12.73-16.98,24.9
		C425.85,308.24,432.28,301.18,435.75,291.85z M272.17,166.9c-7.3,7.39-13.46,15.82-22.2,22.44c7.97,0.09,7.83,0.01,11.26-5.7
		c2.03-3.38,4.61-6.43,6.91-9.66C269.71,171.79,271.92,169.97,272.17,166.9z M388.92,248.4c-7.63,3.66-11.95,10.62-18.3,17.42
		C380.78,262.97,385.53,256.37,388.92,248.4z M680.25,483.35c3.99-10.84,3.36-22.23,2.78-29.43
		C683.24,461.01,681.62,472.1,680.25,483.35z M330.77,185.64c7.35,3.1,11.61,0.14,16.31-11.26
		C340.89,177.31,335.81,181.32,330.77,185.64z M703.33,415.88c-2.78,3.28-4.71,5.57-7.35,8.69c0.12-2.55,0.17-3.78,0.24-5.37
		c-4.95,1.78-5.96,6.67-8.72,10.09C692.49,425.01,702.88,428.18,703.33,415.88z M521.06,875.57c-1.92,1.97-4.19,2.89-2.2,5.92
		c2.93,4.45,5.3,9.25,8.45,14.88C527.13,888.23,524.42,882.09,521.06,875.57z M786.85,360.48c6.45-0.7,14.01,4.14,19.38-3.84
		C799.02,355.45,792.69,356.78,786.85,360.48z M683.62,327.03c-7.28,0.91-12.85,5.54-19.39,8.12c-0.86,0.34-1.36,1.21-0.48,2.23
		c0.91,1.06,1.73,1.01,2.88,0.28C672.26,334.07,677.95,330.57,683.62,327.03z M687.09,471.21c8.44-6.58,6.02-14.16,5.14-21.4
		C690.64,456.41,689.06,463.01,687.09,471.21z M795.23,460.65c0.26,0.12,0.53,0.25,0.79,0.37c-0.82,1.61-1.25,4.08-2.53,4.65
		c-3.82,1.7-3.41-5.03-8.34-4.08c3.4,4.14,6.4,7.8,9.68,11.8c0.89-2.78,0.01-4.66-0.29-6.64
		C794.27,464.79,794.97,462.69,795.23,460.65z M679.46,352.06c2.17,1.65,3.51,4.35,5.17,3.78c3.3-1.13,6.23-3.36,9.26-5.23
		c0.26-0.16,0.31-1.33,0.13-1.43c-0.6-0.34-1.42-0.67-2.03-0.51C688.04,349.65,684.13,350.77,679.46,352.06z M741.65,408.58
		c6.25,0.88,11.66,1.63,17.69,2.48C753.06,405.18,749.04,404.6,741.65,408.58z M775.63,372.61c5.71-2.12,12.76-0.86,17.46-6.92
		C786.19,366.42,780.87,369.52,775.63,372.61z M672.47,322.16c-0.22-0.42-0.43-0.84-0.65-1.26c-3.85,1.72-7.73,3.37-11.53,5.2
		c-1.07,0.51-3.34,0.51-1.86,2.94c1.14,1.87,2.13,1.45,3.57,0.4C665.44,326.93,668.97,324.58,672.47,322.16z M781.22,418
		c-2.24-5.64-3.59-10.56-7.29-14.41C776.69,407.97,771.02,415.93,781.22,418z M819.66,375.8c3.62,8.71,7.04,11.66,12.09,10.5
		C827.99,382.62,824.58,378.85,819.66,375.8z M696.46,458.02c5.35-4.98,3.37-10.15,2.66-15.14
		C697,447.38,696.45,452.14,696.46,458.02z M779.78,375.34c-5.25,0.8-10.19,1.55-15.13,2.3
		C769.77,377.75,775.76,382.22,779.78,375.34z M601.32,449.51c2.03-5.86,6.06-11.01,6.66-19.01
		C603.73,437.32,602.13,443.31,601.32,449.51z M429,219.37c1.91-3.74-0.17-13.83-3.61-17.27C426.61,207.95,427.79,213.6,429,219.37z
		 M580.37,361.85c-0.29-0.37-0.59-0.74-0.88-1.1c-5.47,3.29-9.91,7.74-14.31,12.24c0.33,0.38,0.66,0.76,0.98,1.14
		C570.89,370.04,575.63,365.94,580.37,361.85z M701.12,302.31c2.5,5.04,6.97,7.36,11.19,8.42
		C710.21,306.78,705.18,305.22,701.12,302.31z M599.65,333.43c-3.01,2.48-2.57,5.72-3.15,8.67c-0.19,0.95-0.13,1.9,1.17,2.03
		c1.39,0.14,2.03-0.46,2-1.92C599.61,339.29,599.65,336.36,599.65,333.43z M569.89,359.13c-5.03,2.19-9.62,2.62-8.59,8.89
		C564.65,365.84,567.24,363.51,569.89,359.13z M262.64,188.03c6.45,0.49,7.59-3.46,9.39-8.88
		C268.3,182.67,265.67,185.17,262.64,188.03z M588.4,339.05c-0.24-1.15,0.97-3.23-1.73-3.06c-3.07,0.2-2.21,2.94-2.91,4.67
		c-0.81,2,0.45,2.03,1.9,2.17C588.76,343.13,588.23,340.91,588.4,339.05z M569.3,323.86c2.71-1.61,6.5-0.59,6.24-4.9
		c-0.1-1.63-1.52-1.28-2.55-1.25C568.97,317.81,569.81,320.79,569.3,323.86z M674.5,429.19c-2.49,2.22-4.64,4.13-7.22,6.43
		C675.69,434.79,676.37,434.17,674.5,429.19z M765.97,407.04c-0.44,4.39,0.46,7.41,5.91,7.02
		C770.23,411.25,768.94,408.55,765.97,407.04z M329.74,373.21c0.51,0.13,1.02,0.26,1.54,0.4c1.03-4.04,3.19-7.77,2.15-12.42
		C332.2,365.2,330.97,369.21,329.74,373.21z M487.94,261.61c-2.9,5.51-2.67,6.63,1.7,8.74
		C489.97,267.27,489.06,264.47,487.94,261.61z M418.73,243.3c-4.19-0.16-7.95,1.49-11.5,3.77
		C411.49,247.39,414.97,245.19,418.73,243.3z M680.74,342.85c-3.36,0.14-5.98,0.44-8.08,2.42c-0.05,0.05,0.71,1.4,1.21,1.5
		C676.72,347.31,678.5,345.54,680.74,342.85z M501.17,871.89c-0.8,2.46-3.88,3.08-2.44,5.58c0.55,0.95,1.84,0.6,2.95-0.07
		C504.5,875.66,502.9,874.14,501.17,871.89z M801.78,473.49c-2.48,5.75-2.48,5.75-0.94,8.86
		C801.28,479.35,802.78,476.63,801.78,473.49z M316.52,250.65c0.26-0.3,0.7-0.83,1.14-1.36c-0.34-0.22-0.85-0.69-0.99-0.6
		c-0.54,0.35-1.1,0.81-1.37,1.37C315.15,250.4,315.52,251,316.52,250.65z M605.93,453.39c0.41-0.75,0.79-1.16,0.81-1.58
		c0.02-0.28-0.46-0.59-0.72-0.89c-0.18,0.29-0.51,0.57-0.51,0.86C605.49,452.19,605.71,452.62,605.93,453.39z M861.14,288.02
		c0.1,0.41,0.07,0.78,0.24,0.95c0.65,0.62,0.98-0.12,1.22-0.46c0.29-0.41,0.37-1.1-0.35-1.17
		C861.89,287.3,861.49,287.79,861.14,288.02z M886.15,380.96c0.49,0.32,0.9,0.65,1.35,0.89c0.83,0.44,0.7-0.5,1.04-0.77
		c-0.42-0.31-0.83-0.65-1.28-0.91C886.39,379.67,886.61,380.69,886.15,380.96z M552.65,230.35c-0.12,0.12-0.35,0.26-0.34,0.35
		c0.05,0.26,0.2,0.49,0.31,0.74c0.12-0.12,0.35-0.26,0.33-0.35C552.92,230.83,552.77,230.59,552.65,230.35z M592.58,447.21
		c0.13-0.14,0.25-0.27,0.36-0.39c-0.23-0.13-0.45-0.29-0.7-0.36c-0.08-0.02-0.23,0.21-0.35,0.33
		C592.12,446.93,592.34,447.07,592.58,447.21z"/>
</g>
<g id="JV">
	<g>
		<path class="st1" d="M272.15,882.8c2.1,1.08,4.38,1.91,5.78,4c-5.15,10.18-13.67,17.71-21.26,25.79
			c-24.84,26.41-52.29,49.79-83.21,68.93c-6.95,4.3-14.62,6.78-22.53,8.21c-12.42,2.26-26.69-10.11-28.64-23.77
			c-1.87-13.08-0.32-26.04,3.55-38.19c10.18-31.97,21.19-63.71,38.91-93.86c-9.68,1.32-17.87,4.92-26.28,7.44
			c-33.59,10.07-67.6,18.61-101.5,27.51c-1.73,0.45-3.42,1.22-4.11-1.18c-0.88-3.09,0.85-4.47,3.63-5.15
			c9.95-2.43,19.89-4.89,29.83-7.37c30.53-7.6,60.62-16.77,90.87-25.38c9.95-2.83,16.2-8.1,19.53-17.48
			c6.06,2.34,8.57,8.48,13.25,12.3c-13.89,2.18-18.53,13.51-23.64,24.2c-5.26,11.02-10.81,21.96-15.08,33.37
			c-8.94,23.87-19.28,47.48-19.34,73.69c-0.05,20.06,12.87,34.24,34.34,22.67c14.98-8.07,27.88-18.9,41.01-29.45
			C231.5,929.58,253.59,907.91,272.15,882.8z"/>
		<path class="st2" d="M149.85,172.5c-2.77,3.21-5.54,6.42-8.3,9.62c-0.75-4.17-3.9-7.1-5.6-10.78c-1.14-2.45-2.67-4.83,1.04-6.5
			c2.92-1.31,5.42-1.51,7.56,1.52C146.1,168.56,146.07,172.22,149.85,172.5z"/>
		<path class="st1" d="M182.38,805.87c15.25-24.03,33.13-46.06,51.55-67.67c1.69-1.98,10.92-11.62,13.03-15.35
			c0.76-0.6,53.96-57.19,79.9-84.78c26.81-28.51,52.43-58.01,75.22-89.88c2.28-3.18,4.36-6.37,4.97-10.45
			c6.98-46.34,11.69-92.95,15.86-139.59c4.03-45.2,7.49-90.46,11.79-135.64c3.63-38.15,8.19-76.16,14.11-114.01
			c0.57-3.63,0.19-6.03-3.1-8.22c-6.3,10.22-12.59,20.4-20.03,29.78c-7.45,9.38-15.49,18.22-24.34,26.32
			c-40.4,37.01-87.05,56.94-142.7,52.18c-8.24-0.71-33.16-6.17-37.55-7.34c-14.09-4.58-39.7-19.08-39.7-19.08l-5.04-4.01
			c0,0-21.79-18.05-29.26-30.38c0.91-3.02,3.43-4.79,5.45-6.94c7.63,9.47,14.8,19.37,24.59,26.87c1.53,1.17,9.73,7.34,9.73,7.34
			l40.32,20.12c0,0,18.29,5.49,20.83,5.86c25.7,3.76,51.16,3.08,76.02-5.17c55.28-18.35,92.22-56.91,118.1-107.57
			c2.88-4.07,5.5-8.26,6.02-13.39c6.72-12.76,10.6-26.54,14.65-40.27c0.55-1.85,0.91-3.93,2.02-5.39c1.51-1.99,3.98-3.05,6.5-2.16
			c2.92,1.03,1.88,3.7,1.48,5.66c-2.73,13.29-5.61,26.56-8.45,39.83c-0.97,4.22-1.94,8.44-2.91,12.65
			c-0.32,2.91-0.55,5.82-0.97,8.71c-3.15,21.73-6.59,43.42-9.43,65.19c-3.88,29.77-6.84,59.64-9.27,89.58
			c-3.07,37.95-6.42,75.88-9.86,113.8c-2.08,22.85-4.46,45.67-6.91,68.48c-1.79,16.6-4.47,49.53-4.23,49.2
			c1.01-1.37,1.96-2.79,2.87-4.24c27.2-43.49,49.01-89.56,65.41-138.13c20.35-60.27,32.03-122.2,34.03-185.86
			c0.13-4.23,1.09-7.61,5.81-7.57c5.44,0.05,4.04,4.6,4.01,7.72c-0.22,20.03-0.4,40.07-0.66,60.1
			c-1.1,86.07-0.02,172.16-1.53,258.24c-0.96,54.54-0.39,109.1-0.45,163.65c0,2.27-0.72,4.75,1.07,7.31
			c21.66-11.41,42.29-23.94,62.54-37.12c2.43-1.58,3.4-4.07,4.69-6.4c19.7-35.52,35.95-72.69,52.32-109.8
			c26.54-60.17,55.46-119.17,87.14-176.81c15.89-28.9,53.97-98.43,53.97-98.43s4.47-6.3,6.58-9.51c3.05-4.65,6.81-8.24,11.83-10.59
			c14.63-6.84,20.9-3.86,26.05,11.19c11.18,32.7,12.14,65.98,6.64,99.73c-2.13,7.32-6.43,25.7-6.96,27.46
			c-6.58,21.61-15.81,42.07-27.05,61.58c-44.91,77.95-105.61,141.56-178.32,193.82c-17.27,12.41-32.15,25.66-43.05,44.45
			c-14.74,25.42-34,47.73-55.59,67.84c-2.88,2.69-6.04,6.01-10.19,4c-3.39-1.65-1.62-5.74-1.65-8.72
			c-0.17-12.8-0.07-25.6-0.07-38.26c-1.26-0.15-1.55-0.28-1.72-0.19c-53.04,26.22-107.92,48.13-162.92,69.75
			c-1.33,0.52-3.18,1.19-3.61,2.27c-3.4,8.56-10.99,25.32-10.99,25.32l-6.01,10.48c0,0-15.88,26.61-24.26,39.63
			c-8.23,12.8-16.3,25.77-27,36.79c-2.32-0.2-4.24-1.24-5.87-2.87c6.3-8.95,12.82-17.76,18.87-26.89c10.87-16.41,29.63-51,29.63-51
			l5.7-11.15c0,0,5.87-9.81,7.45-15.37c0.18-0.07,0.38-0.11,0.52-0.23c0.07-0.06,0.04-0.26,0.05-0.39c-0.17,0.23-0.33,0.46-0.5,0.69
			c-7.46,0.95-20.77,7.39-20.77,7.39l-14.57,5.72c0,0-36.28,12.86-54.5,19.08c-16.59,5.66-32.86,12.34-50.01,16.28
			c-2.04-0.12-3.05-1.58-4.04-3.08c1.74-0.79,3.44-1.72,5.23-2.35c28.44-10,56.93-19.87,85.31-30.05c3.3-1.18,20.14-7.54,25.21-9.81
			c8-2.94,15.89-6.28,24.05-8.71c6.73-2,10.25-6.12,12.91-12.45c17.14-40.79,30.5-82.79,40.82-125.78
			c5.28-21.98,9.97-44.1,13.57-66.56c-2.28,0.12-2.77,1.74-3.6,2.83c-32.82,42.98-70.77,81.39-107.67,120.72
			c-13.18,14.04-26.93,27.56-38.81,42.78c-3.52,2.54-13.58,14.61-15.93,17.38c-17.55,20.66-33.82,42.28-48.82,64.86
			C185.9,809.44,183.67,808.18,182.38,805.87z M798,261.14c-2.67,3.87-8.94,14.84-9.88,16.49c-23.47,41.18-46.09,82.81-68.23,124.71
			c-28.66,54.25-53.12,110.45-77.99,166.48c-8.91,20.07-18.79,39.72-28.22,59.56c-0.17,0.49-0.33,0.98-0.5,1.47
			c0.49-0.16,0.98-0.31,1.47-0.47c2.7-1.65,5.52-3.12,8.08-4.96c49.45-35.59,93.77-76.55,131.26-124.75
			c26.33-33.85,50.59-68.96,65.92-109.36c5.33-14.06,7.4-26.32,11.68-43.55c2.27-8.91,5.48-31.52,5.57-35.64
			c0.48-24.02-4.4-47.15-11.44-69.95c-1.57-5.08-4.32-6.74-9.26-4.65C805.32,241.24,803.71,253.09,798,261.14z M522.16,289.7
			c-0.2,0.41-0.51,0.8-0.59,1.23c-17.46,89.45-51.98,171.79-103.15,247.15c-2.31,3.41-3.33,7.03-3.94,10.87
			c-10.73,67.24-27.46,132.84-52.89,196.12c-1.57,3.92-6.37,8.83-3.57,11.72c2.54,2.61,7.85-1.73,11.79-3.28
			c48.64-19.18,97.23-38.47,143.74-62.54c4.11-2.13,7.04-4.09,7.03-9.7c-0.05-23.21,0.24-46.43,0.55-69.64
			c0.8-59.92,0.44-119.87,0.56-179.8c0.05-22.26-0.66-44.56,0.44-66.77C523.37,339.87,521.97,314.73,522.16,289.7z M585.46,658.65
			c-17.3,9.54-34.07,19.51-51.32,28.62c-1.89,1-3.93,1.94-3.92,4.74c0.06,12.34,0.03,24.67,0.03,38.81
			C552.98,708.64,570.56,684.74,585.46,658.65z"/>
	</g>
	<path class="st3" d="M339.56,772.64c0.17-0.23,0.33-0.46,0.5-0.69c-0.01,0.14,0.02,0.33-0.05,0.39c-0.14,0.12-0.34,0.16-0.52,0.23
		C339.48,772.57,339.56,772.64,339.56,772.64z"/>
</g>
<g id="ring_x5F_outer">
	<path class="st4" d="M177.68,811.08c-2.38-5.59-7.39-8.98-11.35-13.17C101.44,729.39,59.48,648.87,44.32,555.78
		c-22.51-138.2,9.93-262.96,96.9-373.14c0.45-0.58,0.88-1.17,1.32-1.75c2.76-3.21,5.53-6.41,8.3-9.62
		c74.05-84.09,165.86-137.4,276.72-154.54c150.31-23.23,282.86,16.93,394.6,120.16c79.3,73.26,127.18,164.79,141.76,271.83
		c19.93,146.26-19.95,275.41-119.84,384.39c-73.72,80.42-165.94,128.22-273.89,143.88c-99.85,14.49-194.91-2.11-284.53-48.85
		c-2.14-1.11-4.11-2.73-6.74-2.57c-1.4-2.09-3.68-2.92-5.78-4c-24.98-14.9-48.96-31.21-71.23-49.99c-3.48-2.93-6.1-7.1-10.98-8.2
		C186.26,819.55,183.74,813.41,177.68,811.08z M196.64,816.8c0.99,1.49,2.01,2.95,4.04,3.08c6.19,8,14.54,13.6,22.42,19.63
		c17.62,13.5,35.62,26.5,55.7,36.25c1.63,1.63,3.55,2.66,5.87,2.87c0.7,1.76,2.33,2.31,3.85,3.11
		c90.78,47.62,187.03,63.49,288.02,47.3c98.21-15.74,183.22-58.96,252.52-130.45c107-110.38,149.34-242.89,127.12-394.63
		c-15.03-102.66-61.89-190.38-137.89-261.1C710.76,42.77,582.94,2.72,437.52,21.88c-86.74,11.43-163.55,47.15-230.48,103.59
		c-19.43,16.39-37.93,33.82-53.51,54.08c-2.02,2.16-4.54,3.92-5.45,6.94c-2.3,0.73-3.31,2.81-4.64,4.51
		C71.59,283.39,38.53,387.99,45.22,504.86c4.29,74.9,26.38,144.45,65.2,208.6c20.3,33.55,44.13,64.38,72.94,91.17
		c1.29,2.3,3.53,3.56,5.58,5.03C190.71,812.9,193.57,814.96,196.64,816.8z"/>
</g>
<g id="Layer_4">
</g>
</svg>
